<?xml version="1.0" encoding="utf-8"?>
<svg width="128" height="128" viewBox="0 0 128 128" xmlns="http://www.w3.org/2000/svg">
  <!-- Background circle with gradient -->
  <defs>
    <linearGradient id="bgGradient" x1="0%" y1="0%" x2="100%" y2="100%">
      <stop offset="0%" style="stop-color:#FC5D0D;stop-opacity:1" />
      <stop offset="100%" style="stop-color:#FF8C42;stop-opacity:1" />
    </linearGradient>
  </defs>

  <!-- Background circle -->
  <circle cx="64" cy="64" r="60" fill="url(#bgGradient)"/>

  <!-- RSS icon in white -->
  <g transform="translate(32, 32) scale(2)">
    <path d="M 5 5 L 5 9 C 14.93 9 23 17.07 23 27 L 27 27 C 27 14.85 17.15 5 5 5 z M 5 12 L 5 16 C 11.07 16 16 20.93 16 27 L 20 27 C 20 18.72 13.28 12 5 12 z M 8 21 A 3 3 0 0 0 8 27 A 3 3 0 0 0 8 21 z"
          fill="#FFFFFF"/>
  </g>
</svg>

